# xmcd
#
# Track frame offsets: 
#        150
#        13636
#        25398
#        40237
#        50062
#        68966
#        81228
#        99804
#        112149
#        125002
#
# Disc length: 1832 seconds
#
# Revision: 0
# Processed by: cddbd v1.5.2PL0 Copyright (c) Steve Scherf et al.
# Submitted via: ExactAudioCopy v0.99pb4
#
DISCID=8707260a
DTITLE=Various Artist - 70's Country Radio
DYEAR=2005
DGENRE=Country
TTITLE0=Moe Bandy - I just started hating cheating songs
TTITLE1=Donna Fargo - Happiest girl in the whole U.S.A.
TTITLE2=Don Gibson - Woman (Sensuous Woman)
TTITLE3=Mickey Gilley - Fraulein
TTITLE4=Alabama - I wanna be with you tonight
TTITLE5=Merle Haggard - Okie from Muskogee (live)
TTITLE6=Juice Newton - Angel of the morning
TTITLE7=Johnny Paycheck - Take this job and shove it
TTITLE8=T.G. Sheppard - Devil in the bottle
TTITLE9=Freddy Fender - Wasted days and wasted nights (live)
EXTD=
EXTT0=
EXTT1=
EXTT2=
EXTT3=
EXTT4=
EXTT5=
EXTT6=
EXTT7=
EXTT8=
EXTT9=
PLAYORDER=
